<?xml version="1.0" standalone="no"?>
<!DOCTYPE svg PUBLIC "-//W3C//DTD SVG 20010904//EN"
 "http://www.w3.org/TR/2001/REC-SVG-20010904/DTD/svg10.dtd">
<svg version="1.0" xmlns="http://www.w3.org/2000/svg"
 width="700.000000pt" height="700.000000pt" viewBox="0 0 700.000000 700.000000"
 preserveAspectRatio="xMidYMid meet">
<metadata>
Created by potrace 1.11, written by Peter Selinger 2001-2013
</metadata>
<g transform="translate(0.000000,700.000000) scale(0.100000,-0.100000)"
fill="#000000" stroke="none">
<path d="M3275 6994 c-885 -71 -1649 -417 -2250 -1019 -559 -558 -898 -1260
-1001 -2070 -25 -195 -25 -615 0 -810 63 -494 206 -929 439 -1335 776 -1352
2348 -2026 3867 -1659 835 202 1579 718 2063 1430 320 471 508 975 583 1564
25 195 25 614 0 810 -101 798 -430 1487 -973 2041 -557 569 -1259 919 -2057
1025 -146 19 -546 33 -671 23z m1310 -1510 c200 -48 383 -206 458 -395 95
-238 21 -527 -177 -691 -68 -58 -194 -120 -274 -137 -75 -16 -217 -14 -287 4
-150 38 -308 153 -384 279 -78 131 -110 309 -82 458 20 102 90 236 163 310
163 166 364 225 583 172z m-1085 -1984 l0 -1910 -490 0 -490 0 0 1910 0 1910
490 0 490 0 0 -1910z"/>
</g>
</svg>
